<svg width="131" height="96" viewBox="0 0 131 96" fill="none" xmlns="http://www.w3.org/2000/svg">
<path d="M32.9841 61.057V59.416L31.8884 59.1581C31.804 58.5543 31.6473 57.9631 31.4215 57.3972L32.2402 56.6241L31.4242 55.2029L30.3475 55.5303C29.9729 55.0512 29.5429 54.6187 29.0663 54.242L29.3922 53.1592L27.9788 52.3387L27.2102 53.1625C26.6475 52.9352 26.0593 52.7772 25.4589 52.6918L25.2027 51.5905H23.5709L23.3137 52.6918C22.7136 52.7772 22.1259 52.9353 21.5634 53.1625L20.7946 52.3387L19.3817 53.1592L19.7065 54.242C19.2305 54.6189 18.8005 55.0514 18.4258 55.5303L17.3492 55.2029L16.5332 56.6241L17.3526 57.3972C17.1266 57.9631 16.9694 58.5543 16.8842 59.1581L15.7891 59.416V61.057L16.8842 61.315C16.9693 61.9188 17.1266 62.51 17.3526 63.0758L16.5332 63.849L17.3492 65.2702L18.4258 64.943C18.8005 65.4219 19.2306 65.8544 19.7068 66.2314L19.3819 67.3141L20.7948 68.1346L21.5636 67.3108C22.1261 67.538 22.7138 67.696 23.314 67.7813L23.5712 68.8826H25.2029L25.4591 67.7813C26.0596 67.696 26.6478 67.538 27.2105 67.3108L27.9791 68.1346L29.3924 67.3141L29.0666 66.2314C29.5431 65.8547 29.9732 65.4222 30.3478 64.943L31.4244 65.2702L32.2405 63.849L31.4217 63.0758C31.6475 62.51 31.8043 61.9188 31.8887 61.315L32.9841 61.057ZM19.2663 60.3396C19.2663 59.321 19.5665 58.3253 20.1293 57.4784C20.692 56.6315 21.4918 55.9714 22.4276 55.5816C23.3633 55.1919 24.3929 55.0899 25.3863 55.2887C26.3796 55.4874 27.2921 55.9779 28.0082 56.6982C28.7244 57.4185 29.212 58.3362 29.4095 59.3352C29.607 60.3342 29.5056 61.3697 29.118 62.3107C28.7303 63.2517 28.0739 64.056 27.2317 64.6218C26.3896 65.1876 25.3995 65.4896 24.3867 65.4895C23.0291 65.4879 21.7275 64.9447 20.7676 63.9793C19.8077 63.0138 19.2678 61.7049 19.2663 60.3396Z" fill="#EBEBEA"/>
<path d="M18.9135 48.1235V47.303L18.3656 47.174C18.3232 46.8722 18.2448 46.5766 18.1318 46.2937L18.5415 45.907L18.1336 45.1964L17.595 45.36C17.4078 45.1203 17.193 44.9041 16.9546 44.7158L17.1175 44.1744L16.4109 43.7643L16.0267 44.1762C15.7454 44.0626 15.4511 43.9835 15.1509 43.9409L15.0225 43.3901H14.2064L14.0782 43.9409C13.7781 43.9836 13.4842 44.0626 13.2029 44.1762L12.8185 43.7643L12.1119 44.1744L12.2745 44.7158C12.0365 44.9043 11.8216 45.1205 11.6344 45.36L11.0961 45.1964L10.6879 45.907L11.0978 46.2937C10.9847 46.5766 10.9061 46.8722 10.8633 47.174L10.3159 47.303V48.1235L10.8633 48.2525C10.906 48.5544 10.9847 48.8501 11.0978 49.133L10.6879 49.5195L11.0961 50.2301L11.6344 50.0665C11.8216 50.306 12.0365 50.5222 12.2745 50.7107L12.1119 51.252L12.8185 51.6622L13.2029 51.2503C13.4842 51.3639 13.7781 51.4428 14.0782 51.4853L14.2064 52.0362H15.0225L15.1509 51.4853C15.4512 51.4428 15.7454 51.3639 16.0267 51.2503L16.4109 51.6622L17.1175 51.252L16.9546 50.7107C17.1928 50.5223 17.4077 50.306 17.595 50.0665L18.1336 50.2301L18.5415 49.5195L18.1318 49.133C18.2448 48.8501 18.3232 48.5544 18.3656 48.2525L18.9135 48.1235ZM12.0544 47.7648C12.0544 47.2555 12.2044 46.7577 12.4857 46.3342C12.7671 45.9108 13.1669 45.5807 13.6348 45.3858C14.1026 45.1909 14.6174 45.1399 15.1141 45.2393C15.6108 45.3386 16.0671 45.5838 16.4252 45.9439C16.7833 46.304 17.027 46.7628 17.1259 47.2623C17.2247 47.7617 17.1741 48.2795 16.9803 48.75C16.7866 49.2205 16.4584 49.6227 16.0373 49.9056C15.6163 50.1886 15.1215 50.3397 14.6151 50.3397C13.9361 50.3392 13.2851 50.0678 12.8049 49.5851C12.3247 49.1024 12.0545 48.4478 12.0536 47.765L12.0544 47.7648Z" fill="#EBEBEA"/>
<path d="M2.18077 73.8137L1.72323 73.3303L9.01915 66.1514L13.8058 70.9304L23.9781 60.7919L24.4384 61.2712L13.8073 71.8666L9.01767 67.0849L2.18077 73.8137Z" fill="#00BFB3"/>
<path d="M2.21693 75.2922C3.14833 75.1469 3.78462 74.2591 3.63813 73.3092C3.49164 72.3594 2.61784 71.7071 1.68645 71.8524C0.755047 71.9976 0.118752 72.8854 0.265241 73.8353C0.41173 74.7852 1.28553 75.4375 2.21693 75.2922Z" fill="#00BFB3"/>
<path d="M9.28343 68.339C10.2148 68.1937 10.8511 67.3059 10.7046 66.3561C10.5581 65.4062 9.68435 64.7539 8.75295 64.8992C7.82155 65.0445 7.18526 65.9323 7.33175 66.8822C7.47824 67.832 8.35203 68.4843 9.28343 68.339Z" fill="#00BFB3"/>
<path d="M14.0716 73.1192C15.003 72.9739 15.6393 72.0861 15.4928 71.1363C15.3463 70.1864 14.4725 69.5341 13.5411 69.6794C12.6097 69.8247 11.9734 70.7125 12.1199 71.6623C12.2664 72.6122 13.1402 73.2645 14.0716 73.1192Z" fill="#00BFB3"/>
<path d="M24.248 62.8149C25.1794 62.6696 25.8157 61.7818 25.6692 60.8319C25.5227 59.882 24.6489 59.2298 23.7175 59.375C22.7861 59.5203 22.1498 60.4081 22.2963 61.358C22.4428 62.3079 23.3166 62.9601 24.248 62.8149Z" fill="#00BFB3"/>
<path d="M78.6761 57.7987C78.6761 48.1484 71.0046 40.3254 61.5416 40.3254C52.0786 40.3254 44.4076 48.1484 44.4076 57.7987C44.3974 61.0276 45.2759 64.1964 46.9458 66.9542C48.6157 69.7121 51.0117 71.9515 53.8689 73.4245V77.4162C53.8582 77.86 54.0233 78.2899 54.3277 78.6115C54.632 78.933 55.0507 79.1199 55.492 79.131H68.1455C68.5868 79.1199 69.0055 78.933 69.3099 78.6115C69.6142 78.29 69.7795 77.8601 69.7689 77.4162V73.1298C72.4781 71.6053 74.7325 69.3799 76.2987 66.6843C77.8648 63.9886 78.6857 60.9208 78.6761 57.7987Z" fill="#FDD048"/>
<path d="M69.7323 74.9365H53.8681V90.7662H69.7323V74.9365Z" fill="white"/>
<path d="M53.0642 90.2223C53.6898 93.49 57.3434 95.9976 61.7577 95.9976C66.1719 95.9976 69.8276 93.4888 70.4517 90.2223H53.0642Z" fill="#FDD048"/>
<path d="M72.5671 76.3856C72.5671 77.1865 71.6888 77.8358 70.6048 77.8358H53.0649C51.9811 77.8358 51.1021 77.1875 51.1021 76.3856C51.1021 75.5852 51.9811 74.9355 53.0649 74.9355H70.6048C71.6888 74.9355 72.5671 75.5847 72.5671 76.3856Z" fill="#0F4AB2"/>
<path d="M72.4903 81.2465C72.4903 82.0474 71.6122 82.6967 70.5282 82.6967H52.9883C51.9043 82.6967 51.0255 82.0484 51.0255 81.2465C51.0255 80.4459 51.9043 79.7964 52.9883 79.7964H70.5282C71.6122 79.7964 72.4903 80.4454 72.4903 81.2465Z" fill="#0F4AB2"/>
<path d="M72.6735 86.3852C72.6735 87.1861 71.7944 87.8354 70.7109 87.8354H53.1715C52.0872 87.8354 51.2086 87.1869 51.2086 86.3852C51.2086 85.5846 52.0872 84.935 53.1715 84.935H70.7109C71.7944 84.935 72.6735 85.584 72.6735 86.3852Z" fill="#0F4AB2"/>
<path d="M78.4101 19.8031C76.9015 19.7748 75.4627 19.1582 74.3975 18.0833C73.3323 17.0085 72.7239 15.5596 72.7008 14.0423C72.6776 12.525 73.2416 11.058 74.2735 9.95082C75.3054 8.84367 76.7247 8.18295 78.2317 8.10811C78.2566 7.05169 78.6894 6.04653 79.4386 5.30564C80.1878 4.56476 81.1944 4.14639 82.2451 4.13922C83.0467 4.13834 83.8297 4.38221 84.4905 4.8386C85.2092 3.14138 86.492 1.74808 88.1195 0.897098C89.7469 0.046115 91.618 -0.209648 93.4123 0.17357C95.2066 0.556788 96.8127 1.55516 97.9558 2.99787C99.0989 4.44058 99.7078 6.23794 99.6785 8.08241C99.6785 8.17654 99.6761 8.27018 99.6733 8.36355C100.988 8.78913 102.11 9.67043 102.839 10.8503C103.567 12.0302 103.856 13.4321 103.652 14.8059C103.449 16.1798 102.767 17.4364 101.729 18.3518C100.69 19.2671 99.3613 19.7818 97.9803 19.8039L78.4101 19.8031Z" fill="#2650A2"/>
<path d="M24.5535 72.8682V84.2996H44.2316" stroke="#838282" stroke-width="2" stroke-miterlimit="10" stroke-dasharray="6 5"/>
<path d="M78.4994 85.0413H110.965V68.883" stroke="#838282" stroke-width="2" stroke-miterlimit="10" stroke-dasharray="6 5"/>
<path d="M130.909 8.07581H91.8772V69.883H130.909V8.07581Z" fill="#EAEAE8"/>
<path d="M128.893 9.901H93.8932V68.0581H128.893V9.901Z" fill="#D2D2D2"/>
<path d="M128.058 10.7523H94.7278V62.5756H128.058V10.7523Z" fill="#EAEAE8"/>
<path d="M128.058 64.0444H94.7278V66.9862H128.058V64.0444Z" fill="#D2D2D2"/>
<path d="M123.344 49.5648H99.4424V59.7089H123.344V49.5648Z" fill="white"/>
<path d="M122.049 50.8145H100.737V51.9724H122.049V50.8145Z" fill="#D2D2D2"/>
<path d="M122.049 52.9297H100.737V54.0875H122.049V52.9297Z" fill="#D2D2D2"/>
<path d="M122.049 55.0449H100.737V56.2027H122.049V55.0449Z" fill="#D2D2D2"/>
<path d="M122.049 57.1604H100.737V58.3183H122.049V57.1604Z" fill="#D2D2D2"/>
<path d="M123.344 36.7743H99.4424V46.9183H123.344V36.7743Z" fill="#D2D2D2"/>
<path d="M120.215 45.2097H121.797V38.4832H120.215V45.2097Z" fill="#EAEAE8"/>
<path d="M100.682 39.1602H116.93V38.4832H100.682V39.1602Z" fill="#EAEAE8"/>
<path d="M100.682 41.1963H116.93V40.5193H100.682V41.1963Z" fill="#EAEAE8"/>
<path d="M100.682 43.2324H116.93V42.5554H100.682V43.2324Z" fill="#EAEAE8"/>
<path d="M100.682 45.2687H116.93V44.5917H100.682V45.2687Z" fill="#EAEAE8"/>
<path d="M118.265 45.2097H118.839V38.4832H118.265V45.2097Z" fill="#EAEAE8"/>
<path d="M99.4423 14.0602H97.2495V16.2655H99.4423V14.0602Z" fill="#0F4AB2"/>
<path d="M103.17 14.0602H100.977V16.2655H103.17V14.0602Z" fill="#0F4AB2"/>
<path d="M106.898 14.0602H104.705V16.2655H106.898V14.0602Z" fill="#0F4AB2"/>
<path d="M110.626 14.0602H108.433V16.2655H110.626V14.0602Z" fill="#0F4AB2"/>
<path d="M114.353 14.0602H112.16V16.2655H114.353V14.0602Z" fill="#FDD048"/>
<path d="M118.081 14.0602H115.888V16.2655H118.081V14.0602Z" fill="#0F4AB2"/>
<path d="M121.809 14.0602H119.616V16.2655H121.809V14.0602Z" fill="#E82D37"/>
<path d="M125.536 14.0602H123.344V16.2655H125.536V14.0602Z" fill="#0F4AB2"/>
<path d="M99.4423 18.2502H97.2495V20.4555H99.4423V18.2502Z" fill="#0F4AB2"/>
<path d="M103.17 18.2502H100.977V20.4555H103.17V18.2502Z" fill="#FDD048"/>
<path d="M106.898 18.2502H104.705V20.4555H106.898V18.2502Z" fill="#E82D37"/>
<path d="M110.626 18.2502H108.433V20.4555H110.626V18.2502Z" fill="#0F4AB2"/>
<path d="M114.353 18.2502H112.16V20.4555H114.353V18.2502Z" fill="#0F4AB2"/>
<path d="M118.081 18.2502H115.888V20.4555H118.081V18.2502Z" fill="#0F4AB2"/>
<path d="M121.809 18.2502H119.616V20.4555H121.809V18.2502Z" fill="#697FD0"/>
<path d="M125.536 18.2502H123.344V20.4555H125.536V18.2502Z" fill="#0F4AB2"/>
<path d="M99.4423 22.4402H97.2495V24.6454H99.4423V22.4402Z" fill="#E82D37"/>
<path d="M103.17 22.4402H100.977V24.6454H103.17V22.4402Z" fill="#0F4AB2"/>
<path d="M106.898 22.4402H104.705V24.6454H106.898V22.4402Z" fill="#0F4AB2"/>
<path d="M110.626 22.4402H108.433V24.6454H110.626V22.4402Z" fill="#E82D37"/>
<path d="M114.353 22.4402H112.16V24.6454H114.353V22.4402Z" fill="#0F4AB2"/>
<path d="M118.081 22.4402H115.888V24.6454H118.081V22.4402Z" fill="#0F4AB2"/>
<path d="M121.809 22.4402H119.616V24.6454H121.809V22.4402Z" fill="#0F4AB2"/>
<path d="M125.536 22.4402H123.344V24.6454H125.536V22.4402Z" fill="#0F4AB2"/>
<path d="M99.4423 26.6302H97.2495V28.8354H99.4423V26.6302Z" fill="#0F4AB2"/>
<path d="M103.17 26.6302H100.977V28.8354H103.17V26.6302Z" fill="#0F4AB2"/>
<path d="M106.898 26.6302H104.705V28.8354H106.898V26.6302Z" fill="#0F4AB2"/>
<path d="M110.626 26.6302H108.433V28.8354H110.626V26.6302Z" fill="#FDD048"/>
<path d="M114.353 26.6302H112.16V28.8354H114.353V26.6302Z" fill="#0F4AB2"/>
<path d="M118.081 26.6302H115.888V28.8354H118.081V26.6302Z" fill="#E82D37"/>
<path d="M121.809 26.6302H119.616V28.8354H121.809V26.6302Z" fill="#0F4AB2"/>
<path d="M125.536 26.6302H123.344V28.8354H125.536V26.6302Z" fill="#0F4AB2"/>
<path d="M99.4423 30.8202H97.2495V33.0254H99.4423V30.8202Z" fill="#0F4AB2"/>
<path d="M103.17 30.8202H100.977V33.0254H103.17V30.8202Z" fill="#E82D37"/>
<path d="M106.898 30.8202H104.705V33.0254H106.898V30.8202Z" fill="#0F4AB2"/>
<path d="M110.626 30.8202H108.433V33.0254H110.626V30.8202Z" fill="#0F4AB2"/>
<path d="M114.353 30.8202H112.16V33.0254H114.353V30.8202Z" fill="#0F4AB2"/>
<path d="M118.081 30.8202H115.888V33.0254H118.081V30.8202Z" fill="#0F4AB2"/>
<path d="M121.809 30.8202H119.616V33.0254H121.809V30.8202Z" fill="#FDD048"/>
<path d="M125.536 30.8202H123.344V33.0254H125.536V30.8202Z" fill="#0F4AB2"/>
<path d="M32.0529 37.7817H31.2456V37.1416C31.2456 36.3568 30.9357 35.6042 30.3839 35.0492C29.8321 34.4943 29.0836 34.1825 28.3032 34.1825C27.5228 34.1825 26.7743 34.4943 26.2225 35.0492C25.6707 35.6042 25.3608 36.3568 25.3608 37.1416V37.7817H24.553C24.5001 37.7817 24.4477 37.7922 24.3988 37.8125C24.3499 37.8328 24.3058 37.8626 24.2684 37.9002C24.231 37.9378 24.2011 37.9824 24.1809 38.0316C24.1607 38.0807 24.1503 38.1333 24.1503 38.1865V45.2354C24.1502 45.2886 24.1607 45.3413 24.1809 45.3904C24.2011 45.4395 24.2307 45.4842 24.2681 45.5218C24.3055 45.5594 24.3499 45.5892 24.3988 45.6095C24.4477 45.6298 24.5001 45.6402 24.553 45.6402H32.0529C32.1058 45.6402 32.158 45.6297 32.2069 45.6094C32.2557 45.589 32.3 45.5592 32.3373 45.5216C32.3747 45.484 32.4043 45.4394 32.4245 45.3903C32.4447 45.3412 32.4552 45.2885 32.4551 45.2354V38.1868C32.4552 38.1336 32.4449 38.081 32.4248 38.0318C32.4046 37.9827 32.3749 37.938 32.3376 37.9004C32.3002 37.8628 32.2557 37.8329 32.2069 37.8126C32.158 37.7922 32.1058 37.7817 32.0529 37.7817ZM28.5335 41.6519V43.525H28.0725V41.6519C27.8678 41.5958 27.6904 41.4668 27.5732 41.2891C27.4559 41.1113 27.4067 40.8967 27.4348 40.6853C27.463 40.4738 27.5667 40.2798 27.7263 40.1393C27.886 39.9988 28.0908 39.9214 28.303 39.9214C28.5151 39.9214 28.7199 39.9988 28.8796 40.1393C29.0392 40.2798 29.1429 40.4738 29.1711 40.6853C29.1993 40.8967 29.15 41.1113 29.0327 41.2891C28.9155 41.4668 28.7381 41.5958 28.5335 41.6519ZM30.8384 37.7817H25.7667V37.1416C25.7667 36.4653 26.0341 35.8167 26.5096 35.3384C26.9852 34.8602 27.6299 34.5915 28.3025 34.5915C28.975 34.5915 29.62 34.8602 30.0956 35.3384C30.5711 35.8167 30.8384 36.4653 30.8384 37.1416V37.7817Z" fill="#DA2629"/>
</svg>
