<svg width="111" height="97" viewBox="0 0 111 97" fill="none" xmlns="http://www.w3.org/2000/svg">
<path d="M77.358 0L60.532 8.25925L76.411 17.8498L77.358 0Z" fill="#FFEF00"/>
<path d="M27.2785 96.0592L20.8537 95.9346L20.9712 89.4388L21.1202 81.2001L27.5454 81.3247L27.3947 89.5635L35.5433 89.7216L35.4255 96.2174L27.2785 96.0592Z" fill="#266CEA"/>
<path d="M9.59045 41.6708C9.57808 41.456 9.55791 41.2432 9.55791 41.0255C9.57059 38.792 10.2564 36.6142 11.5259 34.7764C12.7953 32.9386 14.5893 31.5263 16.6738 30.7238C18.7582 29.9213 21.0362 29.766 23.2103 30.278C25.3844 30.7901 27.3535 31.9457 28.8607 33.5941C30.5648 28.9769 33.8305 25.1013 38.0919 22.6388C42.3533 20.1763 47.3418 19.2822 52.1932 20.1114C57.0445 20.9405 61.4529 23.4407 64.6546 27.1787C67.8562 30.9167 69.6493 35.6569 69.7232 40.5781C69.9923 40.5647 70.2631 40.5569 70.5368 40.5569C74.4927 40.5343 78.3027 42.0494 81.1628 44.7825C84.0229 47.5156 85.7094 51.2529 85.8664 55.2057C86.0234 59.1586 84.6387 63.0179 82.0044 65.9692C79.3701 68.9206 75.6923 70.7331 71.747 71.0244V71.0758H15.3459C11.7936 71.0988 8.34476 69.8806 5.59491 67.6317C2.84505 65.3828 0.966789 62.2443 0.284431 58.758C-0.397926 55.2718 0.158455 51.6567 1.85751 48.537C3.55656 45.4173 6.29162 42.9888 9.59045 41.6708Z" fill="#FDD048"/>
<path d="M15.3462 71.0761C11.7938 71.0993 8.34477 69.8813 5.59474 67.6323C2.84471 65.3834 0.966322 62.2447 0.283942 58.7584C-0.398439 55.272 0.158025 51.6568 1.85724 48.537C3.55646 45.4172 6.29176 42.9887 9.5908 41.6709C9.57843 41.4561 9.55825 41.2432 9.55825 41.0255C9.57109 38.7922 10.257 36.6146 11.5263 34.777C12.7957 32.9394 14.5896 31.5272 16.6738 30.7247C18.758 29.9222 21.0358 29.7667 23.2097 30.2786C25.3837 30.7904 27.3528 31.9458 28.8601 33.5938C30.5639 28.9761 33.8296 25.1 38.0912 22.6372C42.3527 20.1744 47.3416 19.2802 52.1933 20.1094C57.0449 20.9386 61.4536 23.4391 64.6553 27.1775C67.8569 30.9159 69.6498 35.6566 69.7232 40.5781C69.9924 40.5644 70.2631 40.5569 70.5368 40.5569C74.4936 40.5327 78.305 42.047 81.1663 44.78C84.0277 47.5131 85.7151 51.251 85.8723 55.2048C86.0295 59.1585 84.6443 63.0187 82.009 65.9703C79.3737 68.9219 75.6946 70.734 71.7484 71.0241V71.0758L15.3462 71.0761Z" fill="#EFEFEF"/>
<path d="M22.7145 40.2182C28.2997 40.2182 32.8274 35.6787 32.8274 30.0789C32.8274 24.4792 28.2997 19.9397 22.7145 19.9397C17.1293 19.9397 12.6016 24.4792 12.6016 30.0789C12.6016 35.6787 17.1293 40.2182 22.7145 40.2182Z" fill="#E82D37"/>
<path d="M39.3238 42.9026C39.3238 42.9026 37.7595 45.7038 37.8268 48.6242C37.8942 51.5445 39.1975 49.9011 39.9037 48.5525C40.6098 47.204 41.0316 46.0868 41.3131 46.2853C41.5946 46.4839 40.2424 49.9789 41.2844 50.0798C42.3265 50.1806 42.7212 49.2571 43.3395 47.8181C43.9578 46.3791 43.4797 48.5552 44.1576 49.1709C44.8355 49.7866 45.8716 50.0554 46.0916 48.7218C46.3116 47.3882 42.6701 42.5296 39.3238 42.9026Z" fill="#E8C490"/>
<path d="M104.82 68.8395C102.188 68.8678 69.1339 55.1535 63.8302 48.7315C60.3084 44.4685 56.8729 42.2185 54.3196 39.8208C51.7664 37.4231 49.4484 36.9528 48.2635 37.1823C47.378 36.5425 45.815 36.701 44.8436 37.5588C43.2243 37.4911 42.1716 37.6616 41.072 39.1739C37.891 38.5028 29.9099 32.941 27.2037 33.574C25.669 33.9319 24.3725 35.6518 26.8936 36.7163C29.7309 37.9141 36.9794 42.0502 39.355 42.9562C43.3867 44.7672 46.612 47.7813 45.3968 50.9487C44.1817 54.116 41.4592 52.6132 38.9154 52.1449C36.3715 51.6766 31.9116 49.4907 31.5029 51.0427C31.0941 52.5946 32.678 53.1052 38.6134 57.3234C44.5488 61.5415 46.9498 62.2444 55.0033 62.2851C63.3947 62.3274 101.07 81.8411 104.82 83.4832V68.8395Z" fill="#F7DBB2"/>
<path d="M68.2813 68.2615L62.7777 65.5052L70.5475 51.2376L77.9939 54.156L68.2813 68.2615Z" fill="white"/>
<path d="M109.559 66.1541L76.5372 52.2106L66.9864 69.0721L110.045 93.0676L109.559 66.1541Z" fill="#474747"/>
</svg>
