<svg width="143" height="96" viewBox="0 0 143 96" fill="none" xmlns="http://www.w3.org/2000/svg">
<path d="M105.02 91.3358C110.436 91.3276 115.632 89.192 119.489 85.3891C123.345 81.5863 125.553 76.4206 125.638 71.0051C125.722 65.5896 123.675 60.3578 119.939 56.4368C116.203 52.5158 111.075 50.2195 105.662 50.0428C105.583 47.458 104.812 44.9418 103.429 42.7562C102.047 40.5707 100.104 38.7959 97.8022 37.6168C95.5007 36.4376 92.925 35.8972 90.3436 36.0518C87.7622 36.2064 85.2695 37.0505 83.1253 38.496C80.4948 32.4935 75.8788 27.579 70.0527 24.578C64.2266 21.577 57.5453 20.6723 51.1309 22.0159C44.7165 23.3594 38.9598 26.8694 34.8278 31.9562C30.6957 37.043 28.4401 43.3968 28.4396 49.9504C28.4396 50.2829 28.4474 50.6134 28.4587 50.9431C23.7349 52.4027 19.6913 55.508 17.0623 59.6952C14.4332 63.8824 13.3932 68.8736 14.131 73.7624C14.8689 78.6511 17.3356 83.1131 21.0833 86.3379C24.831 89.5627 29.6109 91.3363 34.5551 91.3368L105.02 91.3358Z" fill="#EAEAE8"/>
<path d="M110.507 33.5729C108.84 33.572 107.239 32.9156 106.051 31.7453C104.863 30.575 104.183 28.9846 104.157 27.3171C104.131 25.6497 104.761 24.0389 105.912 22.8322C107.063 21.6255 108.643 20.9196 110.309 20.8669C110.334 20.0716 110.571 19.2974 110.997 18.625C111.422 17.9526 112.02 17.4066 112.728 17.0439C113.437 16.6811 114.229 16.5149 115.023 16.5625C115.817 16.6101 116.584 16.8699 117.244 17.3146C118.054 15.4676 119.474 13.9553 121.267 13.0319C123.059 12.1084 125.115 11.83 127.089 12.2434C129.063 12.6568 130.834 13.7368 132.105 15.302C133.377 16.8673 134.071 18.8224 134.071 20.8389C134.071 20.9411 134.069 21.043 134.065 21.1444C135.519 21.5936 136.763 22.5492 137.571 23.8375C138.38 25.1259 138.7 26.6617 138.473 28.1658C138.246 29.67 137.487 31.0429 136.334 32.0352C135.181 33.0275 133.711 33.5733 132.189 33.5736L110.507 33.5729Z" fill="#EAEAE8"/>
<path d="M4.67892 79.3444H4.67719C4.68747 79.3713 4.69776 79.3966 4.70805 79.423" stroke="#00EDFF" stroke-miterlimit="10"/>
<path d="M50.5384 62.0756L50.4783 61.9176" stroke="#231F20" stroke-miterlimit="10"/>
<path d="M6.01874 76.4827L2.40786 77.8575C1.07804 78.3639 0.410461 79.8524 0.91679 81.1822C1.42312 82.512 2.91162 83.1796 4.24144 82.6733L7.85232 81.2984C9.18215 80.7921 9.84972 79.3036 9.34339 77.9738C8.83706 76.6439 7.34857 75.9764 6.01874 76.4827Z" fill="#0F4AB2"/>
<path d="M46.6554 70.429C50.6062 70.429 53.8089 67.2263 53.8089 63.2755C53.8089 59.3248 50.6062 56.122 46.6554 56.122C42.7047 56.122 39.502 59.3248 39.502 63.2755C39.502 67.2263 42.7047 70.429 46.6554 70.429Z" fill="#0F4AB2"/>
<path d="M21.2296 78.3116L14.5936 80.8383L20.3687 96.0061L27.0047 93.4794L21.2296 78.3116Z" fill="#0F4AB2"/>
<path d="M40.6661 40.8814C40.6661 40.8814 40.813 49.5048 30.5973 57.1875C20.3815 64.8701 7.53244 68.7959 7.53244 68.7959C7.53244 68.7959 1.40639 70.5334 4.67764 79.3441H4.67597C4.68626 79.3711 4.69654 79.3963 4.70683 79.4228C4.71712 79.4492 4.72591 79.4752 4.73596 79.5019H4.73769C8.15079 88.2588 13.8824 85.4841 13.8824 85.4841C13.8824 85.4841 26.0916 79.874 38.8302 78.8243C51.5688 77.7745 57.1911 84.3134 57.1911 84.3134L58.7705 83.7124L50.5374 62.0753L50.4774 61.9176L42.2445 40.2805L40.6661 40.8814Z" fill="#0F4AB2"/>
<path d="M13.8834 85.4846C13.8834 85.4846 8.15078 88.259 4.73867 79.5024H4.737C4.72695 79.4754 4.71761 79.4497 4.70781 79.4233C4.69801 79.3968 4.68724 79.3713 4.67695 79.3446H4.67868C1.40743 70.5338 7.53348 68.7964 7.53348 68.7964L12.693 66.8334L19.0111 83.438L13.8834 85.4846Z" fill="#F9C800"/>
<path d="M40.6661 40.8814L42.2455 40.2805L50.4784 61.9176L50.5386 62.0756L58.7715 83.7127L57.1921 84.3136L40.6661 40.8814Z" fill="#F9C800"/>
<path d="M137.053 70.4312C137.053 73.1542 136.246 75.8162 134.733 78.0803C133.22 80.3444 131.07 82.1091 128.554 83.1512C126.038 84.1932 123.27 84.4659 120.599 83.9347C117.928 83.4034 115.475 82.0921 113.55 80.1666C111.624 78.2412 110.313 75.7879 109.782 73.1172C109.25 70.4465 109.523 67.6782 110.565 65.1624C111.607 62.6466 113.372 60.4964 115.636 58.9835C117.9 57.4707 120.562 56.6632 123.285 56.6632C126.937 56.6632 130.439 58.1137 133.021 60.6957C135.603 63.2777 137.053 66.7797 137.053 70.4312Z" fill="#DA2629"/>
<path d="M123.325 80.1041C128.668 80.0822 132.981 75.7337 132.959 70.3914C132.937 65.0492 128.588 60.7361 123.246 60.7581C117.904 60.78 113.591 65.1285 113.613 70.4708C113.635 75.813 117.983 80.1261 123.325 80.1041Z" fill="white"/>
<path d="M130.086 71.0445C130.426 67.2884 127.656 63.9683 123.9 63.6289C120.144 63.2895 116.824 66.0593 116.484 69.8154C116.145 73.5716 118.915 76.8916 122.671 77.2311C126.427 77.5705 129.747 74.8007 130.086 71.0445Z" fill="#DA2629"/>
<path d="M126.543 70.4314C126.543 71.0755 126.352 71.7052 125.994 72.2407C125.636 72.7763 125.127 73.1937 124.532 73.4401C123.937 73.6866 123.282 73.751 122.65 73.6253C122.019 73.4997 121.438 73.1895 120.983 72.734C120.527 72.2785 120.217 71.6982 120.092 71.0665C119.966 70.4347 120.03 69.7799 120.277 69.1848C120.523 68.5897 120.941 68.0811 121.477 67.7232C122.012 67.3654 122.642 67.1744 123.286 67.1744C123.714 67.1744 124.137 67.2586 124.532 67.4223C124.927 67.586 125.286 67.8259 125.589 68.1284C125.891 68.4308 126.131 68.7899 126.295 69.185C126.459 69.5802 126.543 70.0037 126.543 70.4314Z" fill="white"/>
<path d="M100.681 67.899L101.71 69.7815C101.579 69.9341 101.5 70.1238 101.484 70.3237C101.467 70.5236 101.514 70.7237 101.617 70.8957L100.444 72.7575C100.283 73.0126 100.398 73.2306 100.699 73.2426L105.767 73.4427C105.935 73.4397 106.1 73.4014 106.253 73.3306C106.405 73.2597 106.54 73.1577 106.651 73.0312L108.085 71.1803L122.324 70.7149C122.855 70.7149 123.286 70.8898 123.285 70.3584C123.284 69.8271 122.853 70.0049 122.322 70.0059L108.252 69.6063L107.152 67.8826C107.054 67.7477 106.929 67.6362 106.783 67.5562C106.637 67.4762 106.475 67.4298 106.309 67.4204L100.965 67.4181C100.905 67.4073 100.843 67.415 100.788 67.4403C100.733 67.4656 100.686 67.5072 100.655 67.5596C100.625 67.612 100.61 67.6726 100.615 67.7333C100.619 67.794 100.642 67.8518 100.681 67.899Z" fill="#2F7AFF"/>
<path d="M84.8786 7.12752H89.152C90.1771 7.12927 91.1596 7.53754 91.884 8.26278C92.6084 8.98801 93.0156 9.97098 93.0162 10.996V11.2552C93.0151 12.2795 92.6075 13.2614 91.883 13.9854C91.1585 14.7094 90.1763 15.1162 89.152 15.1166H87.7688L88.6363 17.4114L85.3313 15.1166H84.8786C83.8546 15.1162 82.8726 14.7092 82.1486 13.9852C81.4245 13.2611 81.0176 12.2792 81.0172 11.2552V10.996C81.0173 9.97133 81.424 8.98854 82.1479 8.2633C82.8718 7.53806 83.8539 7.12959 84.8786 7.12752Z" fill="#2F7AFF"/>
<path d="M78.1587 0H71.5241C69.9316 0.00232625 68.4049 0.635407 67.2781 1.76069C66.1513 2.88598 65.5162 4.41181 65.5117 6.00427V6.40678C65.5157 8.00057 66.1502 9.52803 67.2768 10.6554C68.4033 11.7829 69.9303 12.4186 71.5241 12.4238H73.6716L72.3242 15.9863L77.4553 12.4238H78.1582C78.7773 12.4243 79.3926 12.3282 79.9821 12.1391C79.8787 11.758 79.8265 11.3647 79.827 10.9698V10.7106C79.8261 10.1124 79.9465 9.52017 80.181 8.96978C80.6381 7.89742 81.493 7.04392 82.5662 6.58855C83.0745 6.37267 83.6187 6.25377 84.1708 6.23798V6.00427C84.1663 4.41185 83.5312 2.88605 82.4045 1.76078C81.2777 0.6355 79.7511 0.00239098 78.1587 0ZM70.1627 7.16132C69.9266 7.16137 69.6957 7.09139 69.4994 6.96025C69.303 6.8291 69.15 6.64267 69.0596 6.42454C68.9692 6.20641 68.9455 5.96637 68.9915 5.73478C69.0376 5.50319 69.1513 5.29045 69.3182 5.12347C69.4852 4.95649 69.6979 4.84276 69.9295 4.79668C70.1611 4.7506 70.4011 4.77422 70.6193 4.86457C70.8374 4.95492 71.0239 5.10793 71.155 5.30426C71.2862 5.50058 71.3562 5.7314 71.3562 5.96752C71.3562 6.28405 71.2304 6.5876 71.0066 6.81142C70.7828 7.03524 70.4792 7.16101 70.1627 7.16108V7.16132ZM74.3656 7.16132C74.1295 7.16132 73.8987 7.09131 73.7024 6.96013C73.506 6.82896 73.353 6.64251 73.2627 6.42437C73.1723 6.20623 73.1487 5.9662 73.1947 5.73463C73.2408 5.50305 73.3545 5.29034 73.5215 5.12338C73.6884 4.95643 73.9011 4.84272 74.1327 4.79666C74.3643 4.7506 74.6043 4.77424 74.8225 4.8646C75.0406 4.95495 75.227 5.10797 75.3582 5.30428C75.4894 5.5006 75.5594 5.73141 75.5594 5.96752C75.5594 6.12429 75.5285 6.27953 75.4684 6.42435C75.4084 6.56918 75.3205 6.70076 75.2096 6.81159C75.0987 6.92243 74.9671 7.01033 74.8222 7.0703C74.6774 7.13026 74.5221 7.16111 74.3654 7.16108L74.3656 7.16132ZM78.5685 7.16132C78.3324 7.16132 78.1016 7.09131 77.9053 6.96013C77.709 6.82896 77.556 6.64251 77.4656 6.42437C77.3753 6.20623 77.3516 5.9662 77.3977 5.73463C77.4437 5.50305 77.5575 5.29034 77.7244 5.12338C77.8914 4.95643 78.104 4.84272 78.3356 4.79666C78.5672 4.7506 78.8073 4.77424 79.0254 4.8646C79.2435 4.95495 79.4299 5.10797 79.5611 5.30428C79.6923 5.5006 79.7623 5.73141 79.7623 5.96752C79.7623 6.12429 79.7314 6.27953 79.6713 6.42435C79.6113 6.56918 79.5234 6.70076 79.4125 6.81159C79.3016 6.92243 79.17 7.01033 79.0252 7.0703C78.8803 7.13026 78.725 7.16111 78.5683 7.16108L78.5685 7.16132Z" fill="#00BFB3"/>
<path d="M142.58 32.0199C142.579 31.0172 142.312 30.0326 141.804 29.168C141.296 28.3034 140.566 27.5901 139.69 27.1017C138.815 26.6133 137.824 26.3676 136.822 26.39C135.819 26.4124 134.841 26.702 133.988 27.2289C133.135 27.7559 132.438 28.501 131.969 29.3875C131.5 30.2739 131.276 31.2694 131.321 32.2711C131.365 33.2729 131.677 34.2446 132.222 35.0859C132.768 35.9271 133.529 36.6074 134.425 37.0565V38.3432C134.423 38.4872 134.477 38.6263 134.578 38.73C134.678 38.8336 134.815 38.8933 134.959 38.8958H139.118C139.262 38.8933 139.399 38.8336 139.499 38.73C139.599 38.6263 139.654 38.4872 139.652 38.3432V36.9615C140.538 36.4764 141.278 35.7616 141.793 34.8921C142.308 34.0227 142.58 33.0306 142.58 32.0199Z" fill="#FDD048"/>
<path d="M139.64 37.544H134.425V42.6465H139.64V37.544Z" fill="white"/>
<path d="M134.161 42.4711C134.367 43.5245 135.568 44.333 137.019 44.333C138.47 44.333 139.671 43.5245 139.877 42.4711H134.161Z" fill="#929497"/>
<path d="M140.572 38.0115C140.572 38.2694 140.283 38.4786 139.927 38.4786H134.161C133.805 38.4786 133.516 38.2697 133.516 38.0115C133.516 37.7535 133.805 37.544 134.161 37.544H139.927C140.283 37.544 140.572 37.7535 140.572 38.0115Z" fill="#929497"/>
<path d="M140.547 39.5779C140.547 39.8361 140.258 40.045 139.902 40.045H134.136C133.78 40.045 133.491 39.8361 133.491 39.5779C133.491 39.3199 133.78 39.1107 134.136 39.1107H139.902C140.258 39.1107 140.547 39.3199 140.547 39.5779Z" fill="#929497"/>
<path d="M140.607 41.2342C140.607 41.4924 140.318 41.7014 139.962 41.7014H134.196C133.84 41.7014 133.551 41.4924 133.551 41.2342C133.551 40.9762 133.84 40.767 134.196 40.767H139.962C140.318 40.767 140.607 40.9762 140.607 41.2342H140.607Z" fill="#929497"/>
</svg>
