<svg width="172" height="20" viewBox="0 0 172 20" fill="none" xmlns="http://www.w3.org/2000/svg">
<path d="M139.638 18.4599C139.615 18.2999 139.594 18.1455 139.578 17.9927C139.561 17.8371 139.552 17.6806 139.552 17.5239C139.553 17.3636 139.562 17.2034 139.578 17.0439C139.594 16.8791 139.615 16.7183 139.638 16.5591C139.798 16.5367 139.954 16.5199 140.106 16.5087C140.258 16.4967 140.415 16.4919 140.574 16.4919C140.732 16.4919 140.894 16.4967 141.049 16.5087C141.204 16.5207 141.369 16.5367 141.529 16.5591C141.552 16.7191 141.572 16.8791 141.589 17.0391C141.622 17.3558 141.622 17.6752 141.589 17.9919C141.572 18.1519 141.552 18.3103 141.529 18.4671C141.369 18.4895 141.214 18.5063 141.062 18.5183C140.91 18.5303 140.752 18.5351 140.594 18.5351C140.435 18.5351 140.274 18.5295 140.114 18.5183C139.954 18.5071 139.796 18.4823 139.638 18.4599Z" fill="white"/>
<path d="M148.601 12.7119C148.63 12.4558 148.599 12.1964 148.511 11.9543C148.423 11.7121 148.279 11.4939 148.092 11.3167C147.654 11.0281 147.134 10.8907 146.611 10.9255C146.238 10.9239 145.865 10.9552 145.498 11.0191C145.156 11.0806 144.818 11.1629 144.486 11.2655C144.262 10.8541 144.151 10.3905 144.166 9.92231C144.582 9.79038 145.008 9.69375 145.441 9.63349C145.886 9.5668 146.335 9.53258 146.785 9.5311C147.712 9.46605 148.631 9.7414 149.37 10.3055C149.688 10.6289 149.932 11.0177 150.084 11.4449C150.237 11.872 150.295 12.3273 150.254 12.7791V18.2399C149.858 18.3306 149.375 18.4236 148.808 18.5191C148.235 18.6162 147.655 18.6649 147.074 18.6647C146.568 18.6704 146.063 18.6191 145.569 18.5119C145.159 18.427 144.771 18.2587 144.429 18.0175C144.12 17.7937 143.872 17.4954 143.709 17.1503C143.528 16.7501 143.441 16.314 143.454 15.8751C143.441 15.445 143.536 15.0186 143.729 14.6342C143.922 14.2497 144.207 13.9193 144.56 13.6727C144.915 13.422 145.312 13.2375 145.732 13.1279C146.187 13.0078 146.656 12.9481 147.127 12.9503C147.49 12.9503 147.788 12.9575 148.019 12.9743C148.25 12.9911 148.448 13.0111 148.606 13.0343L148.601 12.7119ZM148.601 14.3615C148.432 14.338 148.216 14.3154 147.954 14.2935C147.694 14.2703 147.474 14.2591 147.292 14.2591C146.729 14.2227 146.168 14.3591 145.684 14.6503C145.499 14.786 145.351 14.9664 145.255 15.1745C145.158 15.3826 145.116 15.6118 145.132 15.8407C145.117 16.1198 145.182 16.3974 145.319 16.6407C145.435 16.8249 145.596 16.9767 145.786 17.0823C145.979 17.1859 146.191 17.2498 146.409 17.2703C146.635 17.2919 146.85 17.3031 147.055 17.3031C147.325 17.3032 147.594 17.2887 147.862 17.2599C148.112 17.2372 148.359 17.1949 148.602 17.1335L148.601 14.3615Z" fill="white"/>
<path d="M152.632 16.8783C153.304 17.1446 154.019 17.2829 154.742 17.2863C154.993 17.2875 155.244 17.259 155.49 17.2015C155.709 17.1525 155.919 17.0662 156.11 16.9463C156.279 16.8388 156.424 16.6964 156.535 16.5287C156.642 16.3647 156.698 16.1725 156.695 15.9767C156.702 15.782 156.658 15.5889 156.567 15.4167C156.482 15.2695 156.366 15.1419 156.228 15.0423C156.074 14.935 155.908 14.8466 155.734 14.7791C155.546 14.7055 155.345 14.6351 155.13 14.5671L154.534 14.3455C153.948 14.1561 153.408 13.8429 152.953 13.4271C152.783 13.2416 152.653 13.0243 152.568 12.7878C152.483 12.5513 152.446 12.3004 152.459 12.0495C152.445 11.6999 152.512 11.3516 152.655 11.0323C152.798 10.713 153.013 10.4314 153.284 10.2095C153.989 9.70912 154.846 9.46876 155.708 9.52949C156.145 9.52935 156.581 9.57195 157.01 9.65669C157.388 9.72932 157.76 9.82878 158.124 9.9543C158.1 10.1843 158.057 10.412 157.996 10.6351C157.937 10.8508 157.86 11.0611 157.766 11.2639C157.473 11.1605 157.176 11.0726 156.874 11.0007C156.509 10.9137 156.135 10.871 155.759 10.8735C155.376 10.8665 154.996 10.9418 154.645 11.0943C154.493 11.1585 154.366 11.2683 154.28 11.4084C154.194 11.5484 154.154 11.7119 154.165 11.8759C154.159 12.0485 154.2 12.2194 154.284 12.3703C154.364 12.5084 154.473 12.6274 154.604 12.7191C154.749 12.8203 154.906 12.9033 155.072 12.9663C155.246 13.0335 155.438 13.1015 155.642 13.1703L156.39 13.4255C156.655 13.5123 156.914 13.6193 157.163 13.7455C157.399 13.8638 157.612 14.0218 157.794 14.2127C157.975 14.4115 158.119 14.642 158.218 14.8927C158.423 15.4131 158.454 15.9859 158.308 16.5257C158.161 17.0655 157.843 17.5433 157.402 17.8879C157.063 18.1442 156.679 18.3369 156.271 18.4567C155.796 18.5977 155.303 18.6668 154.808 18.6615C154.329 18.6664 153.851 18.6295 153.379 18.5511C152.992 18.4824 152.611 18.3829 152.239 18.2535C152.263 18.0195 152.312 17.7886 152.384 17.5647C152.459 17.3351 152.542 17.1023 152.632 16.8783Z" fill="white"/>
<path d="M161.034 11.0615H159.932C159.907 10.9585 159.89 10.8536 159.882 10.748C159.869 10.6318 159.864 10.5151 159.864 10.3984C159.863 10.2821 159.869 10.166 159.882 10.0504C159.89 9.94442 159.907 9.83929 159.932 9.73596H162.686V18.4608C162.562 18.4832 162.423 18.4999 162.27 18.5119C162.118 18.5239 161.978 18.5287 161.853 18.5287C161.727 18.5287 161.607 18.5231 161.453 18.5119C161.298 18.5007 161.16 18.4832 161.035 18.4608L161.034 11.0615ZM160.661 7.81277C160.637 7.66664 160.623 7.51914 160.618 7.37117C160.612 7.21117 160.609 7.06927 160.61 6.94553C160.61 6.82153 160.61 6.67996 160.618 6.52156C160.622 6.37911 160.636 6.23715 160.661 6.09675C160.809 6.07355 160.967 6.05675 161.141 6.04475C161.314 6.03275 161.461 6.02795 161.582 6.02795C161.704 6.02795 161.854 6.03435 162.025 6.04475C162.195 6.05515 162.345 6.07355 162.483 6.09675C162.508 6.23708 162.523 6.37908 162.526 6.52156C162.532 6.68156 162.535 6.82153 162.535 6.94553C162.535 7.06953 162.535 7.21277 162.526 7.37117C162.522 7.51917 162.508 7.66671 162.483 7.81277C162.347 7.83597 162.198 7.85194 162.033 7.86394C161.868 7.87594 161.724 7.88074 161.598 7.88074C161.473 7.88074 161.309 7.87514 161.14 7.86394C160.971 7.85274 160.812 7.83597 160.661 7.81277Z" fill="white"/>
<path d="M170.03 12.712C170.06 12.4559 170.029 12.1964 169.941 11.9542C169.853 11.712 169.709 11.4938 169.522 11.3168C169.084 11.0283 168.564 10.8909 168.042 10.9256C167.668 10.924 167.295 10.9553 166.927 11.0192C166.585 11.0807 166.247 11.1631 165.914 11.2656C165.691 10.854 165.581 10.3905 165.594 9.92238C166.011 9.79046 166.437 9.69383 166.87 9.63357C167.315 9.56688 167.764 9.53266 168.214 9.53117C169.141 9.4663 170.06 9.74163 170.799 10.3056C171.116 10.6296 171.359 11.0185 171.511 11.4456C171.663 11.8727 171.72 12.3277 171.679 12.7792V18.24C171.282 18.3306 170.8 18.4237 170.233 18.5192C169.66 18.6163 169.08 18.665 168.498 18.6648C167.993 18.6703 167.488 18.6191 166.994 18.512C166.584 18.4273 166.196 18.2589 165.854 18.0175C165.544 17.7937 165.297 17.4954 165.134 17.1504C164.953 16.7502 164.866 16.3141 164.878 15.8752C164.866 15.4452 164.96 15.0188 165.153 14.6343C165.346 14.2499 165.632 13.9194 165.984 13.6728C166.339 13.4217 166.737 13.2371 167.158 13.128C167.613 13.0078 168.082 12.9481 168.553 12.9504C168.915 12.9504 169.212 12.9576 169.445 12.9744C169.678 12.9912 169.873 13.0112 170.03 13.0344V12.712ZM170.03 14.3616C169.862 14.3384 169.646 14.316 169.385 14.2936C169.124 14.2712 168.905 14.2592 168.722 14.2592C168.158 14.2227 167.597 14.3592 167.114 14.6504C166.929 14.7861 166.781 14.9664 166.685 15.1746C166.588 15.3827 166.546 15.6119 166.562 15.8408C166.546 16.1199 166.611 16.3974 166.749 16.6408C166.865 16.825 167.026 16.9769 167.216 17.0824C167.409 17.186 167.62 17.2499 167.838 17.2704C168.065 17.292 168.28 17.3032 168.484 17.3032C168.754 17.3033 169.024 17.2889 169.292 17.26C169.541 17.2372 169.788 17.195 170.031 17.1336L170.03 14.3616Z" fill="white"/>
<path d="M6.40961 19.7881L3.31201 13.1208L10.0232 10.0009L6.40961 19.7881Z" fill="#1A1A1A"/>
<path d="M0.192017 6.40955L3.31201 13.1215L10.0232 10.0015L0.192017 6.40955Z" fill="#4C4C4C"/>
<path d="M19.7888 13.5704L16.6912 6.90234L10.0232 10.0016L19.7888 13.5704Z" fill="#A11924"/>
<path d="M13.5936 0.237549L16.6912 6.90234L10.0232 10.0015L13.5936 0.237549Z" fill="#CE0D1D"/>
<path d="M0.192017 6.40957L6.90322 3.28955L10.0232 10.004L0.192017 6.40957Z" fill="#ECB100"/>
<path d="M13.5936 0.237549L6.92639 3.33433L10.0232 10.0023L13.5936 0.237549Z" fill="#FFDC00"/>
<path d="M6.43201 19.7776L13.1224 16.6688L10.0224 10.0024L6.43201 19.7776Z" fill="#F88113"/>
<path d="M19.7784 13.5479L13.1128 16.6472L10.0248 10.0032L19.7784 13.5479Z" fill="#FF9F15"/>
<path d="M0 14.6583L3.4488 13.0583L4.988 16.3671L0 14.6583Z" fill="#1A1A1A"/>
<path d="M0 14.6576L1.9 9.72241L3.4496 13.056L0 14.6576Z" fill="#4C4C4C"/>
<path d="M18.1592 10.248L16.6208 6.93596L19.9808 5.37756L18.1592 10.248Z" fill="#A11924"/>
<path d="M16.6208 6.93523L15.084 3.62561L19.9776 5.37522L16.6208 6.93523Z" fill="#CE0D1D"/>
<path d="M14.6696 20.0024L13.0024 16.4144L16.2904 14.8864L14.6696 20.0024Z" fill="#FF9F15"/>
<path d="M9.64401 17.9736L13.004 16.4136L14.6712 20.0016L9.64401 17.9736Z" fill="#F88113"/>
<path d="M7.00239 3.49438L5.37839 0L10.2888 1.96797L7.00239 3.49438Z" fill="#FFDC00"/>
<path d="M3.62241 5.00806L5.3824 0.00244141L6.9824 3.44883L3.62241 5.00806Z" fill="#ECB100"/>
<path d="M29.8104 8.7319H27.7744C27.7277 8.49399 27.6946 8.25358 27.6752 8.01189C27.6581 7.79855 27.6496 7.57512 27.6496 7.34152C27.6496 7.12552 27.6584 6.91911 27.6752 6.71911C27.6949 6.49439 27.728 6.27106 27.7744 6.05031H29.8104V5.42873C29.7982 4.70497 29.9197 3.98513 30.1688 3.30549C30.3908 2.71319 30.7436 2.17863 31.2008 1.74152C31.6608 1.31068 32.2058 0.980696 32.8008 0.772725C33.4594 0.543097 34.1529 0.429671 34.8504 0.43752C35.2688 0.433436 35.6872 0.453977 36.1032 0.499092C36.4778 0.548128 36.848 0.626526 37.2104 0.733516C37.1831 1.22878 37.1297 1.72224 37.0504 2.21188C36.9737 2.65763 36.8532 3.09473 36.6904 3.51672C36.508 3.48312 36.3173 3.44553 36.1184 3.40393C35.8561 3.3569 35.5897 3.33625 35.3232 3.3423C34.8195 3.32044 34.3226 3.46463 33.9088 3.75271C33.6906 3.98523 33.5245 4.26168 33.4218 4.56354C33.319 4.86541 33.2818 5.18572 33.3128 5.5031V6.04953H36.2936C36.3396 6.28754 36.3724 6.52788 36.392 6.7695C36.408 6.9847 36.4176 7.20873 36.4176 7.43913C36.4176 7.65433 36.408 7.86229 36.392 8.06149C36.3721 8.2864 36.3393 8.51 36.2936 8.73112H33.3128V18.8871C32.7387 18.9847 32.1575 19.0347 31.5752 19.0367C30.9854 19.0353 30.3968 18.9853 29.8152 18.8871L29.8104 8.7319Z" fill="white"/>
<path d="M42.996 19.1856C42.0639 19.2069 41.1376 19.034 40.276 18.6776C39.5379 18.3612 38.8839 17.8765 38.3664 17.2624C37.8494 16.6367 37.461 15.9152 37.2232 15.1392C36.9603 14.2871 36.8303 13.3996 36.8376 12.508C36.8312 11.608 36.9612 10.7122 37.2232 9.85119C37.4563 9.06599 37.8451 8.33573 38.3664 7.70397C38.885 7.08738 39.5383 6.59827 40.276 6.27438C41.1352 5.90865 42.0625 5.73054 42.996 5.75197C43.9328 5.73128 44.8634 5.90934 45.7264 6.27438C46.4721 6.59831 47.1345 7.08709 47.664 7.70397C48.19 8.33237 48.5788 9.06375 48.8056 9.85119C49.0584 10.7139 49.1838 11.609 49.1776 12.508C49.1847 13.3986 49.0593 14.2854 48.8056 15.1392C48.5741 15.9175 48.1856 16.6401 47.664 17.2624C47.1355 17.8768 46.4725 18.3611 45.7264 18.6776C44.861 19.0332 43.9314 19.2061 42.996 19.1856ZM42.996 16.5048C43.3923 16.5363 43.7896 16.4565 44.143 16.2743C44.4964 16.0921 44.7918 15.8148 44.996 15.4736C45.3979 14.5361 45.6051 13.5268 45.6051 12.5068C45.6051 11.4868 45.3979 10.4775 44.996 9.54001C44.7716 9.22191 44.4741 8.96232 44.1285 8.78317C43.7829 8.60403 43.3993 8.51052 43.01 8.51052C42.6207 8.51052 42.2371 8.60403 41.8915 8.78317C41.5459 8.96232 41.2484 9.22191 41.024 9.54001C40.6228 10.4776 40.4159 11.4869 40.4159 12.5068C40.4159 13.5267 40.6228 14.536 41.024 15.4736C41.2243 15.8119 41.5149 16.0876 41.8633 16.2697C42.2117 16.4519 42.6039 16.5333 42.996 16.5048Z" fill="white"/>
<path d="M50.74 6.05195C51.907 5.8526 53.0994 5.8526 54.2664 6.05195V12.852C54.2542 13.4149 54.3079 13.9774 54.4264 14.5279C54.5075 14.909 54.6778 15.2654 54.9232 15.568C55.1445 15.8228 55.4319 16.0116 55.7536 16.1136C56.1323 16.2269 56.5263 16.2809 56.9216 16.2735C57.4401 16.2847 57.9578 16.2264 58.4608 16.1V6.05195C59.0351 5.95402 59.6166 5.90398 60.1992 5.90234C60.789 5.90345 61.3777 5.95349 61.9592 6.05195V18.3919C61.2715 18.6143 60.5704 18.7925 59.86 18.9255C58.9642 19.1019 58.053 19.1893 57.14 19.1864C56.3244 19.1885 55.5101 19.1221 54.7056 18.9879C53.9662 18.8707 53.2646 18.5819 52.6568 18.1448C52.026 17.6548 51.5409 17.002 51.2536 16.2567C50.8675 15.2001 50.6903 14.0785 50.732 12.9543L50.74 6.05195Z" fill="white"/>
<path d="M64.1728 6.05199C64.4224 6.00079 64.6528 5.96478 64.8816 5.93998C65.1104 5.91518 65.5704 5.90238 65.8328 5.90238C66.0787 5.90228 66.3243 5.91886 66.568 5.95199C66.808 5.98559 67.2768 6.02639 67.5096 6.07519C67.5576 6.15999 67.4296 7.77278 67.452 7.88798C67.826 7.3633 68.2782 6.89898 68.7928 6.51117C69.3674 6.09084 70.0669 5.87638 70.7784 5.90238C70.9448 5.90238 71.1352 5.91118 71.3504 5.92558C71.5099 5.93356 71.6681 5.95852 71.8224 5.99999C71.8572 6.18949 71.8821 6.38069 71.8968 6.57279C71.9128 6.78879 71.9224 7.012 71.9224 7.2432C71.9224 7.5224 71.9096 7.82959 71.8832 8.16239C71.8606 8.47908 71.8154 8.79375 71.748 9.10399C71.547 9.07086 71.3437 9.05456 71.14 9.05522H70.7296C70.4133 9.05806 70.0978 9.08719 69.7864 9.14237C69.4218 9.20804 69.08 9.36583 68.7936 9.60077C68.4417 9.90158 68.1722 10.287 68.0104 10.7208C67.7763 11.3899 67.671 12.0973 67.7 12.8056V18.9136C67.4024 18.9632 67.1048 18.9936 66.8064 19.0144C66.508 19.0352 66.2192 19.0384 65.9376 19.0384C65.656 19.0384 65.3704 19.0288 65.0816 19.0144C64.7928 19 64.4896 18.9632 64.1736 18.9136L64.1728 6.05199Z" fill="white"/>
<path d="M74.668 8.73272H73.0536L78.1448 2.30151V6.0519H81.148C81.1923 6.27298 81.2252 6.49622 81.2464 6.7207C81.2624 6.9207 81.272 7.12712 81.272 7.34312C81.272 7.57512 81.2624 7.79833 81.2464 8.01353C81.2304 8.22873 81.1968 8.4687 81.148 8.7335H78.1416V13.7735C78.1306 14.1909 78.1723 14.6081 78.2656 15.0151C78.3272 15.2872 78.4498 15.5419 78.624 15.7599C78.7778 15.9396 78.9817 16.0694 79.2096 16.1327C79.4766 16.2026 79.752 16.2357 80.028 16.2311C80.273 16.2318 80.5177 16.2112 80.7592 16.1695C80.9992 16.1287 81.2112 16.0895 81.3928 16.0591C81.5097 16.3763 81.5937 16.7047 81.6432 17.0391C81.6884 17.3392 81.7124 17.6421 81.7152 17.9455C81.7152 18.1287 81.7152 18.2807 81.704 18.4063C81.6928 18.5319 81.6832 18.6463 81.6672 18.7671C80.8941 18.9495 80.1023 19.041 79.308 19.0399C78.0659 19.1253 76.836 18.749 75.8544 17.9831C75.4214 17.5283 75.0911 16.9858 74.8857 16.3923C74.6804 15.7989 74.6047 15.1683 74.664 14.5431L74.668 8.73272Z" fill="white"/>
<path d="M84.5264 8.73274H82.8616C82.8103 8.50754 82.7732 8.27936 82.7504 8.04954C82.7253 7.82241 82.713 7.59406 82.7136 7.36555C82.7123 6.92323 82.7617 6.48222 82.8608 6.05115H87.9808V18.888C87.4062 18.9854 86.8244 19.0355 86.2416 19.0376C85.6678 19.0347 85.0952 18.9847 84.5296 18.888L84.5264 8.73274Z" fill="white"/>
<path d="M90.5472 8.73272H88.9312L94.0224 2.30151V6.0519H97.0272C97.072 6.27297 97.1054 6.4962 97.1272 6.7207C97.144 6.9207 97.1512 7.12712 97.1512 7.34312C97.1512 7.57512 97.144 7.79833 97.1272 8.01353C97.1104 8.22873 97.0768 8.4687 97.0272 8.7335H94.0232V13.7735C94.0125 14.1909 94.0539 14.608 94.1464 15.0151C94.2079 15.2879 94.3316 15.5429 94.508 15.7599C94.6611 15.9393 94.8641 16.0691 95.0912 16.1327C95.3585 16.2027 95.6341 16.2358 95.9104 16.2311C96.1555 16.2319 96.4001 16.2113 96.6416 16.1695L97.276 16.0591C97.3933 16.3761 97.4767 16.7046 97.5248 17.0391C97.5709 17.3391 97.5955 17.642 97.5984 17.9455C97.5984 18.1287 97.5984 18.2807 97.5864 18.4063C97.5744 18.5319 97.5664 18.6463 97.5496 18.7671C96.7767 18.9494 95.9853 19.0409 95.1912 19.0399C93.9493 19.1256 92.7196 18.7492 91.7384 17.9831C90.9427 17.2786 90.5459 16.1319 90.548 14.5431L90.5472 8.73272Z" fill="white"/>
<path d="M99.4832 6.05195C100.648 5.853 101.838 5.853 103.003 6.05195V12.852C102.99 13.415 103.044 13.9775 103.163 14.5279C103.244 14.9092 103.414 15.2658 103.66 15.568C103.881 15.8228 104.169 16.0116 104.49 16.1136C104.869 16.2269 105.262 16.2808 105.657 16.2735C106.176 16.2849 106.694 16.2265 107.197 16.1V6.05195C107.771 5.95394 108.352 5.90389 108.934 5.90234C109.524 5.90328 110.113 5.95333 110.694 6.05195V18.3919C110.008 18.6142 109.307 18.7924 108.598 18.9255C107.702 19.1019 106.791 19.1893 105.878 19.1864C105.062 19.1884 104.248 19.122 103.444 18.9879C102.705 18.8704 102.004 18.5816 101.396 18.1448C100.764 17.6558 100.279 17.0027 99.9936 16.2567C99.607 15.2002 99.4299 14.0786 99.472 12.9543L99.4832 6.05195Z" fill="white"/>
<path d="M121.11 0.735132C121.407 0.686332 121.702 0.655113 121.99 0.635913C122.279 0.616713 122.566 0.611938 122.847 0.611938C123.129 0.611938 123.419 0.621513 123.717 0.635913C124.014 0.650313 124.313 0.686332 124.612 0.735132V18.4655C123.834 18.6968 123.042 18.8751 122.24 18.9991C121.273 19.1341 120.298 19.1961 119.322 19.1847C118.469 19.1878 117.62 19.067 116.802 18.8263C116.022 18.5977 115.299 18.2086 114.678 17.6839C114.044 17.131 113.547 16.4381 113.226 15.6599C112.539 13.8265 112.513 11.8107 113.152 9.95994C113.44 9.15522 113.887 8.41675 114.467 7.7887C115.052 7.16704 115.758 6.67229 116.542 6.33513C117.397 5.97086 118.319 5.78912 119.248 5.80154C119.546 5.80154 119.857 5.81407 120.179 5.83914C120.494 5.86324 120.806 5.91677 121.11 5.9991V0.735132ZM121.11 8.70632C120.844 8.6377 120.575 8.58427 120.302 8.54631C120.043 8.51883 119.781 8.50652 119.52 8.5095C119.024 8.49762 118.533 8.61248 118.094 8.84314C117.695 9.06109 117.35 9.36657 117.086 9.73669C116.81 10.1343 116.613 10.5814 116.505 11.0535C116.38 11.5695 116.318 12.0986 116.319 12.6295C116.305 13.2144 116.389 13.7975 116.566 14.3551C116.703 14.7794 116.937 15.1662 117.249 15.4855C117.54 15.7669 117.893 15.9755 118.28 16.0943C118.699 16.2202 119.135 16.2825 119.572 16.2791C119.829 16.2809 120.085 16.2683 120.341 16.2415C120.602 16.2107 120.86 16.1572 121.111 16.0815L121.11 8.70632Z" fill="white"/>
<path d="M129.826 13.5511C129.822 13.9669 129.914 14.3781 130.094 14.7527C130.274 15.1273 130.539 15.4553 130.866 15.7111C131.605 16.1876 132.473 16.4214 133.351 16.3799C133.93 16.3797 134.507 16.3261 135.076 16.2199C135.647 16.1173 136.208 15.9639 136.752 15.7615C136.953 16.1401 137.112 16.5399 137.225 16.9535C137.36 17.4389 137.435 17.9393 137.446 18.4431C136.048 18.9588 134.567 19.2113 133.077 19.188C132.033 19.2125 130.993 19.0443 130.01 18.692C129.218 18.4006 128.505 17.929 127.926 17.3143C127.379 16.7115 126.972 15.9949 126.734 15.2159C126.216 13.4815 126.22 11.6328 126.746 9.90075C126.991 9.10895 127.392 8.37439 127.926 7.74074C128.458 7.12012 129.119 6.62386 129.863 6.28713C130.712 5.91409 131.632 5.73141 132.558 5.75192C133.377 5.73758 134.19 5.8988 134.941 6.22472C135.617 6.52485 136.223 6.96492 136.717 7.51593C137.216 8.08209 137.593 8.74605 137.822 9.46554C138.074 10.2471 138.2 11.0641 138.194 11.8855C138.194 12.1999 138.182 12.5111 138.157 12.8167C138.132 13.1223 138.102 13.3687 138.07 13.5511H129.826ZM134.866 11.0903C134.867 10.3936 134.635 9.71653 134.207 9.16632C133.999 8.92224 133.737 8.72938 133.442 8.6026C133.147 8.47582 132.826 8.41851 132.506 8.43512C132.16 8.41101 131.814 8.46059 131.489 8.58058C131.164 8.70057 130.868 8.88823 130.622 9.13112C130.153 9.68021 129.882 10.3701 129.851 11.0911L134.866 11.0903Z" fill="white"/>
<path d="M87.728 1.39353C87.712 1.11469 87.6789 0.837097 87.6288 0.562329C87.3488 0.512729 87.0424 0.475384 86.7096 0.450317C86.4072 0.427917 86.1256 0.41512 85.8632 0.41272H85.8424C85.58 0.41272 85.2984 0.427917 84.9944 0.450317C84.664 0.475917 84.3544 0.512729 84.076 0.562329C84.0268 0.837232 83.9937 1.11477 83.9768 1.39353C83.9608 1.66633 83.9504 1.94476 83.9504 2.22556C83.9504 2.49116 83.9608 2.76394 83.9768 3.04314C83.9931 3.32698 84.0262 3.6096 84.076 3.88953C84.3761 3.9411 84.679 3.974 84.9832 3.98796C85.2877 4.0045 85.5741 4.01272 85.8424 4.01272H85.8632C86.132 4.01272 86.4184 4.00476 86.7232 3.98796C87.0265 3.97408 87.3287 3.94118 87.628 3.88953C87.6786 3.60973 87.7118 3.32706 87.7272 3.04314C87.7448 2.76367 87.7536 2.49116 87.7536 2.22556C87.7528 1.94636 87.7456 1.66793 87.728 1.39353Z" fill="white"/>
</svg>
